<?xml version="1.0" encoding="utf-8"?>
<!-- Generator: Adobe Illustrator 24.1.2, SVG Export Plug-In . SVG Version: 6.00 Build 0)  -->
<svg version="1.1" id="Layer_1" xmlns="http://www.w3.org/2000/svg" xmlns:xlink="http://www.w3.org/1999/xlink" x="0px" y="0px"
	 viewBox="0 0 192 192" style="enable-background:new 0 0 192 192;" xml:space="preserve">
<style type="text/css">
	.st0{fill:#1B1718;}
	.st1{fill:#605DFF;}
	.st2{fill:#EDF1FE;}
</style>
<path class="st0" d="M96,47.1L96,47.1c27,0,48.9,21.9,48.9,48.9v0c0,27-21.9,48.9-48.9,48.9h0c-27,0-48.9-21.9-48.9-48.9v0
	C47.1,69,69,47.1,96,47.1z"/>
<path class="st1" d="M96,47.1C69,47.1,47.1,69,47.1,96S69,144.9,96,144.9S144.9,123,144.9,96l0,0l0,0C144.9,69,123,47.1,96,47.1
	 M96,192c-53,0-96-43-96-96S43,0,96,0s96,43,96,96S149,192,96,192"/>
<path class="st2" d="M118.5,96c0-12.4-10.1-22.6-22.5-22.6c-12.4,0-22.6,10.1-22.6,22.5c0,12.4,10.1,22.6,22.5,22.6c0,0,0,0,0,0l0,0
	C108.4,118.5,118.5,108.4,118.5,96"/>
</svg>
